PathFileType	4	(X/Y/Z)	s11c0302.trc
DataRate	CameraRate	NumFrames	NumMarkers	Units	OrigDataRate	OrigDataStartFrame	OrigNumFrames
200	200	6	48	mm	200	750	2000
Frame#	Time	racr			lacr			c7			jug			rlel			rdr			llel			ldr			s2			lic			ric			lasi			rasi			rpsi			lpsi			rgt			lgt			rth1			rth2			rth3			rth4			rlfc			rmfc			rsh1			rsh2			rsh3			rsh4			rlmal			rcal			rtoe			rmt5			lth1			lth2			lth4			lth3			llfc			lmfc			llmal			lcal			lmt5			lsh1			lsh2			lsh3			lsh4			ltoe			SBIKE			LBIKE			RBIKE			
		X1	Y1	Z1	X2	Y2	Z2	X3	Y3	Z3	X4	Y4	Z4	X5	Y5	Z5	X6	Y6	Z6	X7	Y7	Z7	X8	Y8	Z8	X9	Y9	Z9	X10	Y10	Z10	X11	Y11	Z11	X12	Y12	Z12	X13	Y13	Z13	X14	Y14	Z14	X15	Y15	Z15	X16	Y16	Z16	X17	Y17	Z17	X18	Y18	Z18	X19	Y19	Z19	X20	Y20	Z20	X21	Y21	Z21	X22	Y22	Z22	X23	Y23	Z23	X24	Y24	Z24	X25	Y25	Z25	X26	Y26	Z26	X27	Y27	Z27	X28	Y28	Z28	X29	Y29	Z29	X30	Y30	Z30	X31	Y31	Z31	X32	Y32	Z32	X33	Y33	Z33	X34	Y34	Z34	X35	Y35	Z35	X36	Y36	Z36	X37	Y37	Z37	X38	Y38	Z38	X39	Y39	Z39	X40	Y40	Z40	X41	Y41	Z41	X42	Y42	Z42	X43	Y43	Z43	X44	Y44	Z44	X45	Y45	Z45	X46	Y46	Z46	X47	Y47	Z47	X48	Y48	Z48	
750	3.7500	787.352022	1397.707885	-153.152449	703.577993	1387.933525	-494.928547	726.859838	1490.266503	-313.141311	721.463343	1319.499922	-320.141915	679.484774	1164.917560	-0.826080	800.294897	928.356956	-77.466354	539.279665	1117.941128	-573.711345	774.562301	934.758326	-486.626771	144.999991	1332.239769	-203.621368	314.592950	1348.835206	-443.033692	398.392080	1269.351579	-59.301444	333.310168	1264.524200	-411.678629	404.140301	1211.497168	-100.142058	218.298011	1385.280326	-148.967395	191.228503	1398.191558	-241.092978	274.584913	1134.980541	-30.937006	236.801181	1233.624732	-451.642873	304.781298	1004.240116	-32.372941	345.363894	926.047517	-47.419844	341.234283	839.638939	-64.513323	379.242330	935.298408	-58.538021	360.276613	736.636964	-84.966739	354.891120	717.820720	-209.172285	278.582613	600.580641	-66.487294	254.912961	517.322243	-84.256126	194.736434	454.322914	-83.270527	277.384551	507.720142	-115.013948	120.982782	336.923904	-93.141892	65.220458	365.071699	-141.133004	246.201147	139.513886	-150.565629	179.347569	167.129606	-79.586878	359.874224	1139.762230	-473.560503	437.796988	1104.775993	-470.994434	461.458333	1131.642065	-460.180723	483.581087	1032.056376	-477.677938	589.770947	938.382193	-455.435074	608.014854	927.198624	-323.929365	315.672896	600.946178	-422.974580	248.083415	591.139239	-388.106218	395.608298	444.887205	-453.706167	514.443028	841.982966	-467.849324	483.427317	762.209130	-455.198298	415.267271	706.388883	-447.930662	511.023973	745.605450	-433.882354	489.025927	415.060545	-387.948551	-214.611024	952.955973	-256.242499	-17.765847	81.820371	-460.814012	-17.706719	81.644821	-62.136705	
751	3.7550	787.845979	1394.241861	-155.357644	704.750670	1382.438528	-495.580838	728.306711	1486.953098	-315.142743	721.273747	1316.247291	-320.681257	678.832992	1164.341397	-0.302223	800.001522	928.341403	-77.218970	535.812148	1114.363987	-571.591372	773.414920	934.897345	-487.055334	145.947367	1336.146815	-205.429260	314.701567	1348.875702	-444.671409	397.202562	1273.338982	-58.916839	331.958084	1265.266095	-412.473510	402.482504	1214.531784	-99.536899	218.491643	1389.367896	-151.496779	191.526027	1402.879963	-242.350386	274.313938	1138.097171	-30.662183	235.077297	1235.842676	-451.532104	307.880836	1006.485199	-32.023462	350.180309	929.165388	-47.123275	348.142931	842.720642	-63.851452	383.737665	939.195168	-58.464686	367.843313	739.700911	-83.423556	363.250943	720.724093	-207.349732	283.092404	605.136020	-65.357724	257.013633	522.586703	-83.508191	195.206996	461.157068	-82.500317	279.354675	512.421449	-114.326401	117.906550	345.287412	-92.592794	62.346641	374.043201	-140.667073	238.439662	144.377974	-150.737431	172.520578	173.667830	-79.472639	356.282029	1140.905246	-473.443743	433.558832	1104.660636	-470.668679	457.657496	1131.118158	-459.947538	478.277288	1031.043501	-477.497853	585.277619	933.953137	-454.435676	602.812783	923.346731	-323.137797	316.261738	591.453240	-423.174917	247.961066	579.137808	-388.406754	401.325595	438.566077	-454.355802	510.926818	836.190743	-467.503449	481.303215	755.868689	-455.113525	414.085004	698.906519	-447.931475	509.266007	739.481829	-433.514143	495.942841	412.911652	-388.184161	-214.631054	952.955362	-256.340321	-17.800868	81.825312	-460.794521	-17.720265	81.683791	-62.122851	
752	3.7600	788.204858	1390.238872	-157.393788	706.559650	1376.653014	-495.220169	729.728654	1483.641267	-316.984314	721.146156	1312.852417	-321.065894	678.109990	1163.467191	0.463706	799.632652	928.326204	-76.909729	532.063951	1110.807578	-569.183311	772.399988	934.843301	-486.916226	146.607051	1340.277610	-206.977770	314.965460	1348.515442	-446.210908	395.845110	1276.865798	-58.405826	330.835950	1265.266900	-413.366481	400.557640	1217.085398	-99.041353	218.853882	1393.113738	-154.105863	192.528316	1406.472098	-244.345474	274.232474	1141.086015	-30.414356	233.355805	1237.655955	-451.389497	311.198864	1008.831434	-31.588249	355.128149	932.201557	-46.771477	354.770547	845.888281	-63.173720	388.334739	942.957421	-58.647814	375.759243	742.709640	-81.924369	371.264708	723.889655	-206.020642	287.889300	609.726334	-63.945106	259.148453	527.771402	-82.773184	195.763634	468.137719	-81.759200	281.274029	517.157388	-113.957708	114.942855	354.049161	-92.299578	59.886813	383.380644	-140.599114	230.902455	149.794558	-150.817838	165.884743	180.685810	-79.442817	352.527466	1141.473009	-473.211717	429.104427	1103.940407	-470.477142	453.673944	1129.971716	-459.740705	477.337711	1029.267317	-475.135416	580.092454	927.984379	-454.470402	597.177014	918.231457	-322.822450	316.465050	580.927556	-423.530085	247.798577	566.157319	-388.770554	406.519617	431.599332	-455.213656	507.174910	829.146471	-467.444090	478.810904	748.359644	-455.230742	412.494548	690.335971	-448.091957	506.955148	732.489140	-433.240807	502.232129	410.316528	-388.176187	-214.646463	952.928462	-256.433807	-17.822292	81.784287	-460.770507	-17.749768	81.690229	-62.102676	
753	3.7650	788.328753	1385.910846	-159.159600	708.119941	1370.914914	-495.432264	731.240234	1480.266642	-318.220268	721.011972	1309.186397	-321.132284	677.256557	1162.647028	1.383358	799.180944	928.424145	-76.393963	528.092735	1107.080273	-566.416149	771.186167	934.688109	-486.666354	147.406116	1343.961524	-208.521793	315.389418	1347.737263	-447.737481	394.126367	1280.102791	-58.521790	329.656780	1264.863144	-414.427801	398.733527	1219.312532	-98.009022	219.269968	1396.595326	-156.707049	193.653719	1409.600458	-246.381241	274.145875	1143.914961	-30.130059	231.659359	1239.315736	-451.196409	314.655283	1011.218451	-31.247922	360.050561	935.548910	-46.559208	361.566969	849.072337	-62.561607	392.900122	946.814099	-58.667273	383.688399	745.860907	-80.452159	378.933545	727.364281	-204.647842	291.956255	613.987382	-63.390961	261.477453	533.072382	-81.481892	196.423977	475.111279	-81.012728	283.159946	522.164591	-113.468708	112.299135	362.945878	-92.221071	57.647000	393.027641	-140.763801	223.946029	155.809927	-150.629462	159.581065	188.123163	-79.420973	348.644092	1141.494121	-472.887553	424.394248	1102.235638	-469.873100	449.138110	1128.466821	-460.623799	472.814467	1026.815112	-474.628962	575.501153	921.783300	-453.174885	591.197803	911.999025	-322.760012	316.241714	569.887420	-424.061270	247.146904	552.308060	-389.214685	411.171794	423.985619	-456.216608	503.076740	821.020473	-467.808305	476.030829	739.766335	-455.438858	410.634114	680.618362	-448.341398	504.203620	724.458631	-433.156949	507.715589	407.188173	-388.509508	-214.678061	952.886954	-256.500084	-17.862465	81.757631	-460.770354	-17.792668	81.672221	-62.091038	
754	3.7700	788.308715	1381.331619	-160.626694	709.802026	1365.041530	-495.522346	732.538336	1477.279568	-319.722862	720.993660	1305.708335	-321.076342	676.427371	1161.560567	2.612187	798.681884	928.456593	-76.171799	523.956489	1103.200262	-563.289494	770.104559	934.393848	-486.017637	147.868491	1347.458076	-209.637703	315.966598	1346.520723	-449.200399	392.996501	1283.300896	-57.515465	328.673701	1263.941117	-415.543661	396.635222	1220.919101	-96.770345	219.875698	1399.623051	-159.244892	194.949238	1412.201440	-248.589296	274.204208	1146.664653	-29.821182	230.092489	1240.475485	-450.979197	318.133060	1013.646729	-30.842250	364.902833	938.753686	-46.362828	367.853255	852.410230	-61.534448	397.402007	950.796081	-58.637951	391.551024	749.064829	-78.968532	387.460553	730.069987	-202.492297	296.099566	618.335182	-62.521583	263.540632	538.272201	-80.881653	197.087282	482.014753	-80.507492	284.903382	527.035050	-112.986416	110.010265	371.733128	-92.484912	55.756909	402.714558	-140.984716	217.610687	162.016180	-150.348416	153.823302	195.761355	-79.495881	344.823414	1140.690555	-472.523110	419.894777	1100.075341	-469.650102	444.939044	1125.752863	-460.419841	467.256316	1023.651186	-474.723031	570.265925	913.998854	-451.632770	585.163845	904.782168	-324.812627	315.785982	557.895447	-424.476315	246.749829	537.608617	-389.404919	415.132815	415.674328	-457.189317	498.868462	811.801594	-468.396683	473.072017	730.145965	-455.864678	408.564843	669.935665	-448.786357	501.262992	715.536205	-432.961940	512.352606	403.099876	-389.432701	-214.689798	952.836805	-256.543025	-17.911982	81.669478	-460.789314	-17.828671	81.634546	-62.109825	
755	3.7750	787.974135	1376.671901	-161.813128	711.533954	1358.956785	-495.497246	733.821840	1474.444279	-321.016038	720.837668	1302.280445	-320.694388	675.597508	1160.497508	3.864299	798.148257	928.437072	-75.875848	519.179532	1098.572370	-558.717531	769.163553	934.514569	-486.247446	149.320826	1350.287715	-211.547040	316.611879	1344.773697	-450.492047	391.351364	1285.799625	-57.203019	327.908598	1262.411833	-416.550462	394.951746	1221.466992	-94.934973	220.547978	1402.252946	-161.587600	196.401736	1414.274737	-250.692634	274.328892	1149.064193	-29.526908	228.701078	1241.344929	-450.767863	321.581961	1016.119868	-30.517783	369.587320	942.115367	-46.154735	374.040248	855.741816	-60.773607	401.857244	954.551682	-58.625588	399.116343	752.189832	-77.469034	395.159928	733.339865	-200.900877	300.054201	622.554187	-61.687858	265.557233	543.485545	-80.353375	197.794644	488.746863	-80.215997	286.760500	531.828933	-112.432665	107.979526	380.472874	-92.753787	54.443999	412.331202	-141.463674	211.647101	168.625210	-150.269446	148.497186	203.759935	-79.549325	341.164691	1138.792947	-472.171173	415.466990	1096.833040	-469.647693	441.454919	1121.761820	-460.016502	454.360561	1020.199764	-478.781565	563.600126	906.476823	-451.795120	578.358633	896.047559	-323.229571	315.079256	545.312704	-424.926962	246.012245	522.728454	-389.528597	418.610455	406.709692	-458.388491	494.552256	801.635528	-469.224857	470.081579	719.518895	-455.732837	406.418481	658.525305	-449.215364	498.102966	705.970552	-433.086796	516.641503	398.047971	-390.604327	-214.710389	952.771447	-256.637954	-17.927687	81.462369	-460.862993	-17.850989	81.591001	-62.114995	
